<?xml version="1.0" encoding="utf-8"?>
<!-- Generator: Adobe Illustrator 22.0.1, SVG Export Plug-In . SVG Version: 6.00 Build 0)  -->
<svg version="1.1" id="圖層_1" xmlns="http://www.w3.org/2000/svg" xmlns:xlink="http://www.w3.org/1999/xlink" x="0px" y="0px"
	 viewBox="0 0 12.3 12.3" style="enable-background:new 0 0 12.3 12.3;" xml:space="preserve">
<style type="text/css">
	.st0{fill:#38470B;}
</style>
<path class="st0" d="M0.7,0C0.3,0,0,0.3,0,0.7C0,0.9,0.1,1,0.2,1.2l5,5l-5,5c-0.3,0.3-0.3,0.7,0,1s0.7,0.3,1,0c0,0,0,0,0,0l5-5l5,5
	c0.3,0.3,0.7,0.3,1,0c0.3-0.3,0.3-0.7,0-1c0,0,0,0,0,0l-5-5l5-5c0.3-0.3,0.3-0.7,0-1c-0.3-0.3-0.7-0.3-1,0c0,0,0,0,0,0l-5,5l-5-5
	C1,0.1,0.9,0,0.7,0z"/>
</svg>
