<?xml version="1.0" encoding="utf-8"?>
<!-- Generator: Adobe Illustrator 22.0.1, SVG Export Plug-In . SVG Version: 6.00 Build 0)  -->
<svg version="1.1" id="圖層_1" xmlns="http://www.w3.org/2000/svg" xmlns:xlink="http://www.w3.org/1999/xlink" x="0px" y="0px"
	 viewBox="0 0 124.4 157.2" style="enable-background:new 0 0 124.4 157.2;" xml:space="preserve">
<style type="text/css">
	.st0{fill:#38470B;}
</style>
<g transform="translate(-6)">
	<path class="st0" d="M68.2,0c-5.9,0.1-11,4.1-12.5,9.8H15.8c-5.4,0-9.8,4.4-9.8,9.8v127.7c0,5.4,4.4,9.8,9.8,9.8h104.8
		c5.4,0,9.8-4.4,9.8-9.8V19.6c0-5.4-4.4-9.8-9.8-9.8H80.7C79.3,4.1,74.1,0.1,68.2,0z M68.2,6.5c3.6,0,6.5,2.9,6.5,6.5
		c0,0,0,0.1,0,0.1c0,1.8,1.5,3.3,3.3,3.3h9.8v6.5H48.6v-6.6h9.8c1.8,0,3.3-1.5,3.3-3.3c0-3.6,2.9-6.5,6.4-6.6
		C68.1,6.5,68.2,6.5,68.2,6.5z M15.8,16.4H42v9.8c0,1.8,1.5,3.3,3.3,3.3h45.8c1.8,0,3.3-1.5,3.3-3.3v-9.8h26.2
		c1.8,0,3.2,1.4,3.3,3.2c0,0,0,0.1,0,0.1v127.7c0,1.8-1.4,3.2-3.2,3.3c0,0-0.1,0-0.1,0H15.8c-1.8,0-3.2-1.4-3.3-3.2c0,0,0-0.1,0-0.1
		V19.6c0-1.8,1.4-3.2,3.2-3.3C15.7,16.4,15.8,16.4,15.8,16.4z"/>
</g>
</svg>
