<?xml version="1.0" encoding="utf-8"?>
<!-- Generator: Adobe Illustrator 22.0.1, SVG Export Plug-In . SVG Version: 6.00 Build 0)  -->
<svg version="1.1" id="圖層_1" xmlns="http://www.w3.org/2000/svg" xmlns:xlink="http://www.w3.org/1999/xlink" x="0px" y="0px"
	 viewBox="0 0 51.7 47" style="enable-background:new 0 0 51.7 47;" xml:space="preserve">
<style type="text/css">
	.st0{fill:#38470B;}
</style>
<g transform="translate(-5.875 -8.623)">
	<path class="st0" d="M54.7,8.6c-0.9,0-1.7,0.5-2.2,1.3L27,48.9L10.5,34.6c-1-1.1-2.8-1.1-3.8-0.1c-1.1,1-1.1,2.8-0.1,3.8
		c0.1,0.1,0.2,0.2,0.3,0.3L25.8,55c1.1,1,2.8,0.8,3.8-0.3c0.1-0.1,0.1-0.2,0.2-0.3l27.2-41.5c0.8-1.2,0.5-2.9-0.7-3.8
		C55.9,8.8,55.3,8.6,54.7,8.6z"/>
</g>
</svg>
